<svg width="96" height="96" viewBox="0 0 96 96" fill="none" xmlns="http://www.w3.org/2000/svg">
<path d="M48 92C40.5333 92 33.6667 90.3 27.4 86.9C21.1333 83.5 16 78.9667 12 73.3V80C12 81.1333 11.6167 82.0833 10.85 82.85C10.0833 83.6167 9.13333 84 8 84C6.86667 84 5.91667 83.6167 5.15 82.85C4.38333 82.0833 4 81.1333 4 80V64C4 62.8667 4.38333 61.9167 5.15 61.15C5.91667 60.3833 6.86667 60 8 60H24C25.1333 60 26.0833 60.3833 26.85 61.15C27.6167 61.9167 28 62.8667 28 64C28 65.1333 27.6167 66.0833 26.85 66.85C26.0833 67.6167 25.1333 68 24 68H18.1C21.3 72.8 25.5167 76.6667 30.75 79.6C35.9833 82.5333 41.7333 84 48 84C57.4 84 65.4833 80.8667 72.25 74.6C79.0167 68.3333 82.8667 60.6333 83.8 51.5C83.9333 50.4333 84.4 49.5833 85.2 48.95C86 48.3167 86.9333 48 88 48C89.1333 48 90.1 48.35 90.9 49.05C91.7 49.75 92.0333 50.6 91.9 51.6C91.4333 57.2667 89.9667 62.55 87.5 67.45C85.0333 72.35 81.8333 76.6167 77.9 80.25C73.9667 83.8833 69.45 86.75 64.35 88.85C59.25 90.95 53.8 92 48 92ZM48 12C38.6 12 30.5167 15.1333 23.75 21.4C16.9833 27.6667 13.1333 35.3667 12.2 44.5C12.0667 45.5667 11.6 46.4167 10.8 47.05C10 47.6833 9.06667 48 8 48C6.86667 48 5.9 47.65 5.1 46.95C4.3 46.25 3.96667 45.4 4.1 44.4C4.56667 38.7333 6.03333 33.45 8.5 28.55C10.9667 23.65 14.1667 19.3833 18.1 15.75C22.0333 12.1167 26.55 9.25 31.65 7.15C36.75 5.05 42.2 4 48 4C55.4667 4 62.3333 5.7 68.6 9.1C74.8667 12.5 80 17.0333 84 22.7V16C84 14.8667 84.3833 13.9167 85.15 13.15C85.9167 12.3833 86.8667 12 88 12C89.1333 12 90.0833 12.3833 90.85 13.15C91.6167 13.9167 92 14.8667 92 16V32C92 33.1333 91.6167 34.0833 90.85 34.85C90.0833 35.6167 89.1333 36 88 36H72C70.8667 36 69.9167 35.6167 69.15 34.85C68.3833 34.0833 68 33.1333 68 32C68 30.8667 68.3833 29.9167 69.15 29.15C69.9167 28.3833 70.8667 28 72 28H77.9C74.7 23.2 70.4833 19.3333 65.25 16.4C60.0167 13.4667 54.2667 12 48 12ZM48 72C49.4 72 50.5833 71.5167 51.55 70.55C52.5167 69.5833 53 68.4 53 67C53 65.6 52.5167 64.4 51.55 63.4C50.5833 62.4 49.4 61.9 48 61.9C46.6 61.9 45.4167 62.3833 44.45 63.35C43.4833 64.3167 43 65.5 43 66.9C43 68.3 43.4833 69.5 44.45 70.5C45.4167 71.5 46.6 72 48 72ZM56 47C58.3333 44.6667 59.8833 42.7833 60.65 41.35C61.4167 39.9167 61.8 38.2 61.8 36.2C61.8 32.4667 60.4667 29.5 57.8 27.3C55.1333 25.1 51.8667 24 48 24C45.3333 24 42.9667 24.55 40.9 25.65C38.8333 26.75 37.1333 28.3667 35.8 30.5C35.2667 31.3667 35.1833 32.3 35.55 33.3C35.9167 34.3 36.5667 35 37.5 35.4C38.4333 35.8 39.3333 35.7667 40.2 35.3C41.0667 34.8333 41.8333 34.2 42.5 33.4C43.1667 32.6 43.9667 31.9667 44.9 31.5C45.8333 31.0333 46.8667 30.8 48 30.8C49.8 30.8 51.3167 31.3167 52.55 32.35C53.7833 33.3833 54.4 34.7667 54.4 36.5C54.4 37.6333 54.1333 38.7667 53.6 39.9C53.0667 41.0333 51.9333 42.3667 50.2 43.9C48.5333 45.3667 47.2833 46.8 46.45 48.2C45.6167 49.6 45.0333 51.2 44.7 53C44.5667 54 44.8333 54.8833 45.5 55.65C46.1667 56.4167 47.0333 56.8 48.1 56.8C49.1 56.8 49.9333 56.4167 50.6 55.65C51.2667 54.8833 51.7333 54 52 53C52.2667 51.8667 52.7167 50.8667 53.35 50C53.9833 49.1333 54.8667 48.1333 56 47Z" fill="black"/>
</svg>
